<?xml version="1.0" encoding="utf-8"?>
<!-- Generator: Adobe Illustrator 16.0.0, SVG Export Plug-In . SVG Version: 6.00 Build 0)  -->
<!DOCTYPE svg PUBLIC "-//W3C//DTD SVG 1.1//EN" "http://www.w3.org/Graphics/SVG/1.1/DTD/svg11.dtd">
<svg version="1.1"
	 id="Layer_1" xmlns:dc="http://purl.org/dc/elements/1.1/" xmlns:cc="http://creativecommons.org/ns#" xmlns:rdf="http://www.w3.org/1999/02/22-rdf-syntax-ns#" xmlns:svg="http://www.w3.org/2000/svg"
	 xmlns="http://www.w3.org/2000/svg" xmlns:xlink="http://www.w3.org/1999/xlink" x="0px" y="0px" width="700px" height="310px"
	 viewBox="-1.5 -0.5 700 310" enable-background="new -1.5 -0.5 700 310" xml:space="preserve">
<rect x="141" y="145" fill="#800000" width="366" height="68"/>
<rect x="141" y="242" fill="#800000" width="366" height="68"/>
<path fill="#800000" d="M324,0l17,34l37,5l-27,26l6,37l-33-17l-33,17l6-37l-27-26l37-5L324,0z"/>
<path fill="#800000" d="M452,0l17,34l37,5l-27,26l6,37l-33-17l-33,17l6-37l-27-26l37-5L452,0z"/>
<path fill="#800000" d="M196,0l17,34l37,5l-27,26l6,37l-33-17l-33,17l6-37l-27-26l37-5L196,0z"/>
<path d="M550,275l32-183h18l-32,183H550z"/>
<path d="M609.5,252v-34l62-34l-61.999-33v-34l88.999,53v29L609.5,252z"/>
<path d="M87.5,252l-89-53v-29l89-53v34l-62,33l62,34V252z"/>
</svg>
