<?xml version="1.0" encoding="UTF-8"?><svg id="Layer_1" xmlns="http://www.w3.org/2000/svg" viewBox="0 0 699.56 441.22"><defs><style>.cls-1{fill:#005cb4;}.cls-2{fill:#2d2d2d;}</style></defs><path class="cls-1" d="m0,168.87c.3-.02.59-.05.89-.09,0,10.06,0,20.12,0,30.18-.3-.04-.59-.07-.89-.09v-30Z"/><path class="cls-1" d="m507.32,144.78v67.18H141.84v-67.18h365.49Z"/><path class="cls-1" d="m507.34,241.79v67.17H141.83v-67.17h365.51Z"/><path class="cls-1" d="m419.09,102.32c1.14-7.82,2.11-14.99,3.26-22.13.69-4.28,1.84-8.49,2.36-12.79.13-1.09-1.15-2.58-2.11-3.55-6.8-6.86-13.69-13.63-20.53-20.44-1.13-1.12-2.18-2.31-3.77-4.02,12.53-1.68,24.23-3.26,36.38-4.89,5.5-10.97,11.18-22.32,17.28-34.5,3.52,6.89,6.72,13.12,9.89,19.36.44.86.75,1.78,1.17,2.65,6.42,12.94,6.42,13,20.64,14.84,6.97.9,13.97,1.54,21.71,2.38-.92,1.21-1.52,2.23-2.34,3.05-6.7,6.72-13.18,13.71-20.29,19.96-3.55,3.12-3.14,6.48-2.6,10.01,1.44,9.27,3.22,18.49,4.82,27.74.1.57-.2,1.21-.44,2.45-4.82-2.32-9.35-4.37-13.77-6.66-5.43-2.8-10.7-5.94-16.2-8.6-1.41-.68-3.74-.69-5.14,0-8.57,4.25-16.98,8.8-25.47,13.2-1.38.71-2.9,1.15-4.87,1.91Z"/><path class="cls-1" d="m377.85,39.6c-8.68,8.65-16.4,16.21-23.89,23.98-1.18,1.22-2.07,3.54-1.84,5.18,1.4,9.93,3.19,19.81,4.78,29.72.17,1.07-.1,2.2-.22,4.28-3.07-1.76-5.49-3.28-8.03-4.58-7.31-3.74-14.62-7.49-22.06-10.97-1.44-.67-3.73-.71-5.15-.02-10.02,4.82-19.91,9.91-30.43,15.2,1.16-7.51,2.15-14.35,3.28-21.16.79-4.77,1.97-9.49,2.51-14.29.14-1.26-1.17-2.98-2.25-4.03-6.78-6.58-13.69-13.02-20.53-19.53-1.14-1.08-2.15-2.3-3.69-3.95,9.1-1.26,17.41-2.42,25.72-3.53,3.07-.41,6.24-.37,9.2-1.16,1.4-.38,2.81-2.02,3.54-3.44,4.78-9.27,9.38-18.64,14.05-27.96.43-.85.96-1.65,1.56-2.66,4.59,9.07,9.68,17.59,13.25,26.72,2.59,6.63,6.86,8.09,13.06,8.61,8.68.73,17.29,2.26,27.11,3.61Z"/><path class="cls-1" d="m196.43.56c5.88,11.75,11.45,22.89,17.04,34.09,11.74,1.56,23.49,3.13,34.43,4.59-7.98,8.43-16.32,17.23-24.63,26.01,1.93,12.15,3.86,24.24,5.92,37.19-10.47-5.21-20.3-9.95-29.96-15.01-2.45-1.28-4.13-1.19-6.53.06-9.58,4.99-19.32,9.68-29.74,14.85,1.23-7.58,2.33-14.51,3.49-21.42.8-4.78,1.86-9.53,2.4-14.33.13-1.11-1.18-2.63-2.18-3.59-6.8-6.56-13.7-13.01-20.55-19.52-1.16-1.1-2.2-2.32-3.83-4.06,6.64-.92,12.51-1.77,18.39-2.53,5.66-.73,11.36-1.18,16.97-2.17,1.2-.21,2.41-2,3.09-3.33,4.76-9.29,9.37-18.65,14.04-27.98.43-.85.95-1.66,1.64-2.85Z"/><path class="cls-2" d="m.89,198.96c0-10.06,0-20.12,0-30.18,29.18-17.44,58.36-34.88,88.62-52.97,0,9.07-.66,17.02.19,24.82.85,7.86-2.3,11.31-9.14,14.61-17.2,8.32-33.87,17.73-50.74,26.73-.55.29-.98.79-2.02,1.64,20.78,11.42,41.24,22.67,61.53,33.82v34.65c-30.02-18.03-59.23-35.57-88.44-53.11Z"/><path class="cls-2" d="m610,251.29c0-11.11-.15-21.43.16-31.74.05-1.57,1.88-3.66,3.43-4.52,15.37-8.5,30.86-16.79,46.3-25.16,3.65-1.98,7.25-4.05,11.31-6.32-9.04-4.9-17.65-9.61-26.3-14.25-10.62-5.69-21.3-11.26-31.87-17.05-1.15-.63-2.39-2.35-2.42-3.59-.19-10.45-.11-20.9-.11-32.05,10.63,6.25,20.75,12.13,30.8,18.12,18.34,10.93,36.61,22,55.03,32.79,2.36,1.38,3.28,2.63,3.22,5.28-.16,7.49.09,14.99-.18,22.47-.06,1.56-1.28,3.68-2.61,4.5-15.36,9.42-30.84,18.65-46.3,27.92-12.4,7.44-24.79,14.89-37.2,22.31-.77.46-1.7.67-3.27,1.27Z"/><path class="cls-2" d="m599.75,92.06c-10.67,60.85-21.32,121.61-32.01,182.59h-18.29c10.63-60.8,21.26-121.6,31.93-182.59h18.37Z"/><path class="cls-2" d="m61.77,437.85c-4.92,2.25-10.59,3.37-17.01,3.37-5.85,0-11.25-.96-16.21-2.89-4.96-1.93-9.26-4.65-12.89-8.18-3.64-3.53-6.49-7.76-8.56-12.68-2.07-4.92-3.1-10.34-3.1-16.26s1.05-11.56,3.16-16.48c2.1-4.92,5.01-9.11,8.72-12.57,3.71-3.46,8.06-6.12,13.05-7.97,4.99-1.85,10.38-2.78,16.16-2.78,5.35,0,10.61.95,15.78,2.84,5.17,1.89,9.36,4.65,12.57,8.29l-12.41,12.41c-1.71-2.35-3.96-4.1-6.74-5.24-2.78-1.14-5.64-1.71-8.56-1.71-3.21,0-6.15.59-8.83,1.77-2.68,1.18-4.98,2.8-6.9,4.87-1.93,2.07-3.42,4.51-4.49,7.33-1.07,2.82-1.6,5.9-1.6,9.25s.53,6.56,1.6,9.42c1.07,2.85,2.55,5.3,4.44,7.33,1.89,2.03,4.15,3.62,6.79,4.76,2.64,1.14,5.53,1.71,8.67,1.71,3.64,0,6.81-.71,9.52-2.14,2.71-1.43,4.89-3.28,6.53-5.56l12.73,11.98c-3.35,3.85-7.49,6.9-12.41,9.15Z"/><path class="cls-2" d="m100.08,368.89c0,1.36-.27,2.62-.8,3.8-.53,1.18-1.25,2.19-2.14,3.05-.89.86-1.96,1.54-3.21,2.03-1.25.5-2.55.75-3.91.75-2.85,0-5.24-.94-7.17-2.84-1.93-1.89-2.89-4.15-2.89-6.79,0-1.28.25-2.51.75-3.69.5-1.18,1.21-2.19,2.14-3.05.93-.86,2-1.55,3.21-2.09,1.21-.53,2.53-.8,3.96-.8s2.66.25,3.91.75c1.25.5,2.32,1.18,3.21,2.03.89.86,1.6,1.87,2.14,3.05.54,1.18.8,2.44.8,3.8Zm-18.83,70.3v-53.29h17.55v53.29h-17.55Z"/><path class="cls-2" d="m145.66,439.18h-18.94l-20.97-53.29h19.37l11.24,34.56h.32l11.23-34.56h18.73l-20.97,53.29Z"/><path class="cls-2" d="m192.41,368.89c0,1.36-.27,2.62-.8,3.8-.53,1.18-1.25,2.19-2.14,3.05-.89.86-1.96,1.54-3.21,2.03-1.25.5-2.55.75-3.91.75-2.85,0-5.24-.94-7.17-2.84-1.93-1.89-2.89-4.15-2.89-6.79,0-1.28.25-2.51.75-3.69.5-1.18,1.21-2.19,2.14-3.05.93-.86,2-1.55,3.21-2.09,1.21-.53,2.53-.8,3.96-.8s2.66.25,3.91.75c1.25.5,2.32,1.18,3.21,2.03.89.86,1.6,1.87,2.14,3.05.54,1.18.8,2.44.8,3.8Zm-18.83,70.3v-53.29h17.55v53.29h-17.55Z"/><path class="cls-2" d="m241.85,403.13c-1-1.28-2.35-2.32-4.07-3.1-1.71-.78-3.46-1.18-5.24-1.18s-3.53.37-5.03,1.12-2.78,1.75-3.85,3c-1.07,1.25-1.91,2.69-2.51,4.33-.61,1.64-.91,3.39-.91,5.24s.28,3.6.86,5.24c.57,1.64,1.41,3.09,2.51,4.33,1.1,1.25,2.42,2.23,3.96,2.94,1.53.71,3.26,1.07,5.19,1.07,1.78,0,3.55-.34,5.3-1.02,1.75-.68,3.16-1.66,4.23-2.94l9.74,11.88c-2.21,2.14-5.07,3.82-8.56,5.03-3.5,1.21-7.21,1.82-11.13,1.82-4.21,0-8.14-.64-11.79-1.93s-6.82-3.16-9.51-5.62c-2.69-2.46-4.81-5.44-6.35-8.93-1.54-3.49-2.31-7.45-2.31-11.88s.77-8.27,2.31-11.77c1.54-3.49,3.66-6.47,6.35-8.93,2.69-2.46,5.86-4.35,9.51-5.67,3.65-1.32,7.54-1.98,11.68-1.98,1.93,0,3.83.18,5.72.54,1.89.36,3.71.84,5.46,1.44,1.75.61,3.35,1.36,4.81,2.25,1.46.89,2.73,1.87,3.8,2.94l-10.17,11.77Z"/><path class="cls-2" d="m316.43,379.05v60.13h-18.3v-60.13h-21.4v-15.62h61.1v15.62h-21.4Z"/><path class="cls-2" d="m387.8,413.18v2.14c0,.71-.04,1.39-.11,2.03h-38.63c.14,1.5.59,2.85,1.34,4.07.75,1.21,1.71,2.26,2.89,3.16,1.18.89,2.5,1.59,3.96,2.09,1.46.5,2.98.75,4.55.75,2.78,0,5.14-.52,7.06-1.55,1.93-1.03,3.49-2.37,4.71-4.01l12.2,7.7c-2.5,3.64-5.8,6.44-9.9,8.4-4.1,1.96-8.86,2.94-14.28,2.94-4,0-7.78-.62-11.34-1.87-3.57-1.25-6.69-3.07-9.36-5.46-2.67-2.39-4.78-5.33-6.31-8.83-1.54-3.49-2.3-7.49-2.3-11.98s.75-8.29,2.25-11.82c1.5-3.53,3.53-6.53,6.1-8.99,2.57-2.46,5.6-4.37,9.1-5.72,3.49-1.35,7.28-2.03,11.34-2.03s7.53.66,10.81,1.98c3.28,1.32,6.1,3.23,8.45,5.72,2.35,2.5,4.19,5.53,5.51,9.09,1.32,3.57,1.98,7.63,1.98,12.2Zm-16.16-6.74c0-2.78-.87-5.17-2.62-7.17-1.75-2-4.37-3-7.86-3-1.71,0-3.28.27-4.71.8-1.43.54-2.68,1.27-3.75,2.19-1.07.93-1.93,2.02-2.57,3.26-.64,1.25-1,2.55-1.07,3.91h22.58Z"/><path class="cls-2" d="m435.52,403.13c-1-1.28-2.35-2.32-4.07-3.1-1.71-.78-3.46-1.18-5.24-1.18s-3.53.37-5.03,1.12-2.78,1.75-3.85,3c-1.07,1.25-1.91,2.69-2.51,4.33-.61,1.64-.91,3.39-.91,5.24s.28,3.6.86,5.24c.57,1.64,1.41,3.09,2.51,4.33,1.11,1.25,2.42,2.23,3.96,2.94,1.53.71,3.26,1.07,5.19,1.07,1.78,0,3.55-.34,5.3-1.02,1.75-.68,3.16-1.66,4.23-2.94l9.74,11.88c-2.21,2.14-5.07,3.82-8.56,5.03-3.5,1.21-7.21,1.82-11.13,1.82-4.21,0-8.14-.64-11.79-1.93-3.65-1.28-6.82-3.16-9.51-5.62-2.69-2.46-4.81-5.44-6.35-8.93-1.54-3.49-2.31-7.45-2.31-11.88s.77-8.27,2.31-11.77c1.54-3.49,3.66-6.47,6.35-8.93,2.69-2.46,5.86-4.35,9.51-5.67,3.65-1.32,7.54-1.98,11.68-1.98,1.93,0,3.83.18,5.72.54,1.89.36,3.71.84,5.46,1.44,1.75.61,3.35,1.36,4.82,2.25,1.46.89,2.73,1.87,3.8,2.94l-10.17,11.77Z"/><path class="cls-2" d="m487.62,439.18v-28.89c0-1.5-.11-2.92-.32-4.28-.21-1.35-.62-2.55-1.23-3.58-.61-1.03-1.41-1.85-2.41-2.46-1-.6-2.28-.91-3.85-.91-3.07,0-5.42,1.09-7.06,3.26-1.64,2.18-2.46,4.87-2.46,8.08v28.78h-17.55v-80.89h17.55v34.35h.21c1.21-2.14,3.14-4.05,5.78-5.72,2.64-1.67,5.81-2.51,9.52-2.51s6.69.64,9.15,1.93c2.46,1.28,4.46,2.94,5.99,4.98,1.53,2.03,2.64,4.37,3.32,7.01.68,2.64,1.02,5.28,1.02,7.92v32.96h-17.65Z"/><path class="cls-2" d="m616.99,401.09c0,6.63-1.23,12.36-3.69,17.17-2.46,4.82-5.71,8.77-9.74,11.88-4.03,3.1-8.58,5.39-13.64,6.85-5.07,1.46-10.2,2.19-15.41,2.19h-28.25v-75.76h27.39c5.35,0,10.63.62,15.84,1.87,5.21,1.25,9.84,3.32,13.91,6.21,4.07,2.89,7.35,6.76,9.84,11.61,2.5,4.85,3.75,10.84,3.75,17.98Zm-19.05,0c0-4.28-.7-7.83-2.09-10.65-1.39-2.82-3.25-5.06-5.56-6.74-2.32-1.67-4.96-2.87-7.92-3.58-2.96-.71-6.01-1.07-9.15-1.07h-9.1v44.3h8.67c3.28,0,6.44-.38,9.47-1.12,3.03-.75,5.71-1.98,8.03-3.69,2.32-1.71,4.17-3.99,5.56-6.85,1.39-2.85,2.09-6.38,2.09-10.59Z"/><path class="cls-2" d="m683.32,437.85c-4.92,2.25-10.59,3.37-17.01,3.37-5.85,0-11.25-.96-16.21-2.89-4.96-1.93-9.26-4.65-12.89-8.18-3.64-3.53-6.49-7.76-8.56-12.68-2.07-4.92-3.1-10.34-3.1-16.26s1.05-11.56,3.16-16.48c2.1-4.92,5.01-9.11,8.72-12.57,3.71-3.46,8.06-6.12,13.05-7.97,4.99-1.85,10.38-2.78,16.16-2.78,5.35,0,10.61.95,15.78,2.84,5.17,1.89,9.36,4.65,12.57,8.29l-12.41,12.41c-1.71-2.35-3.96-4.1-6.74-5.24-2.78-1.14-5.64-1.71-8.56-1.71-3.21,0-6.15.59-8.83,1.77s-4.98,2.8-6.9,4.87c-1.93,2.07-3.42,4.51-4.49,7.33-1.07,2.82-1.61,5.9-1.61,9.25s.54,6.56,1.61,9.42c1.07,2.85,2.55,5.3,4.44,7.33,1.89,2.03,4.15,3.62,6.79,4.76,2.64,1.14,5.53,1.71,8.67,1.71,3.64,0,6.81-.71,9.52-2.14,2.71-1.43,4.89-3.28,6.53-5.56l12.73,11.98c-3.35,3.85-7.49,6.9-12.41,9.15Z"/></svg>