<?xml version="1.0" encoding="UTF-8"?><svg id="Layer_1" xmlns="http://www.w3.org/2000/svg" viewBox="0 0 699.85 491.19"><defs><style>.cls-1{fill:#cd0002;}.cls-2,.cls-3{fill:#2d2d2d;}.cls-4{letter-spacing:-.02em;}.cls-5{letter-spacing:-.1em;}.cls-3{font-family:AvenirNext-Bold, 'Avenir Next';font-size:107px;font-weight:700;}</style></defs><path class="cls-2" d="m.29,168.87c.3-.02.59-.05.89-.09,0,10.06,0,20.12,0,30.18-.3-.04-.59-.07-.89-.09v-30Z"/><path class="cls-1" d="m507.61,144.78v67.18H142.13v-67.18h365.49Z"/><path class="cls-1" d="m507.63,241.79v67.17H142.12v-67.17h365.51Z"/><path class="cls-1" d="m419.38,102.32c1.14-7.82,2.11-14.99,3.26-22.13.69-4.28,1.84-8.49,2.36-12.79.13-1.09-1.15-2.58-2.11-3.55-6.8-6.86-13.69-13.63-20.53-20.44-1.13-1.12-2.18-2.31-3.77-4.02,12.53-1.68,24.23-3.26,36.38-4.89,5.5-10.97,11.18-22.32,17.28-34.5,3.52,6.89,6.72,13.12,9.89,19.36.44.86.75,1.78,1.17,2.65,6.42,12.94,6.42,13,20.64,14.84,6.97.9,13.97,1.54,21.71,2.38-.92,1.21-1.52,2.23-2.34,3.05-6.7,6.72-13.18,13.71-20.29,19.96-3.55,3.12-3.14,6.48-2.6,10.01,1.44,9.27,3.22,18.49,4.82,27.74.1.57-.2,1.21-.44,2.45-4.82-2.32-9.35-4.37-13.77-6.66-5.43-2.8-10.7-5.94-16.2-8.6-1.41-.68-3.74-.69-5.14,0-8.57,4.25-16.98,8.8-25.47,13.2-1.38.71-2.9,1.15-4.87,1.91Z"/><path class="cls-1" d="m378.14,39.6c-8.68,8.65-16.4,16.21-23.89,23.98-1.18,1.22-2.07,3.54-1.84,5.18,1.4,9.93,3.19,19.81,4.78,29.72.17,1.07-.1,2.2-.22,4.28-3.07-1.76-5.49-3.28-8.03-4.58-7.31-3.74-14.62-7.49-22.06-10.97-1.44-.67-3.73-.71-5.15-.02-10.02,4.82-19.91,9.91-30.43,15.2,1.16-7.51,2.15-14.35,3.28-21.16.79-4.77,1.97-9.49,2.51-14.29.14-1.26-1.17-2.98-2.25-4.03-6.78-6.58-13.69-13.02-20.53-19.53-1.14-1.08-2.15-2.3-3.69-3.95,9.1-1.26,17.41-2.42,25.72-3.53,3.07-.41,6.24-.37,9.2-1.16,1.4-.38,2.81-2.02,3.54-3.44,4.78-9.27,9.38-18.64,14.05-27.96.43-.85.96-1.65,1.56-2.66,4.59,9.07,9.68,17.59,13.25,26.72,2.59,6.63,6.86,8.09,13.06,8.61,8.68.73,17.29,2.26,27.11,3.61Z"/><path class="cls-1" d="m196.72.56c5.88,11.75,11.45,22.89,17.04,34.09,11.74,1.56,23.49,3.13,34.43,4.59-7.98,8.43-16.32,17.23-24.63,26.01,1.93,12.15,3.86,24.24,5.92,37.19-10.47-5.21-20.3-9.95-29.96-15.01-2.45-1.28-4.13-1.19-6.53.06-9.58,4.99-19.32,9.68-29.74,14.85,1.23-7.58,2.33-14.51,3.49-21.42.8-4.78,1.86-9.53,2.4-14.33.13-1.11-1.18-2.63-2.18-3.59-6.8-6.56-13.7-13.01-20.55-19.52-1.16-1.1-2.2-2.32-3.83-4.06,6.64-.92,12.51-1.77,18.39-2.53,5.66-.73,11.36-1.18,16.97-2.17,1.2-.21,2.41-2,3.09-3.33,4.76-9.29,9.37-18.65,14.04-27.98.43-.85.95-1.66,1.64-2.85Z"/><path class="cls-2" d="m1.18,198.96c0-10.06,0-20.12,0-30.18,29.18-17.44,58.36-34.88,88.62-52.97,0,9.07-.66,17.02.19,24.82.85,7.86-2.3,11.31-9.14,14.61-17.2,8.32-33.87,17.73-50.74,26.73-.55.29-.98.79-2.02,1.64,20.78,11.42,41.24,22.67,61.53,33.82v34.65c-30.02-18.03-59.23-35.57-88.44-53.11Z"/><path class="cls-2" d="m610.29,251.29c0-11.11-.15-21.43.16-31.74.05-1.57,1.88-3.66,3.43-4.52,15.37-8.5,30.86-16.79,46.3-25.16,3.65-1.98,7.25-4.05,11.31-6.32-9.04-4.9-17.65-9.61-26.3-14.25-10.62-5.69-21.3-11.26-31.87-17.05-1.15-.63-2.39-2.35-2.42-3.59-.19-10.45-.11-20.9-.11-32.05,10.63,6.25,20.75,12.13,30.8,18.12,18.34,10.93,36.61,22,55.03,32.79,2.36,1.38,3.28,2.63,3.22,5.28-.16,7.49.09,14.99-.18,22.47-.06,1.56-1.28,3.68-2.61,4.5-15.36,9.42-30.84,18.65-46.3,27.92-12.4,7.44-24.79,14.89-37.2,22.31-.77.46-1.7.67-3.27,1.27Z"/><path class="cls-2" d="m600.04,92.06c-10.67,60.85-21.32,121.61-32.01,182.59h-18.29c10.63-60.8,21.26-121.6,31.93-182.59h18.37Z"/><text class="cls-3" transform="translate(0 439.18)"><tspan x="0" y="0">Civic</tspan><tspan class="cls-4" x="252.3" y="0"> </tspan><tspan class="cls-5" x="276.48" y="0">T</tspan><tspan x="328.38" y="0">ech DC</tspan></text></svg>